<svg width="24" height="25" viewBox="0 0 24 25" fill="none" xmlns="http://www.w3.org/2000/svg">
<path fill-rule="evenodd" clip-rule="evenodd" d="M8.78112 7.33557C8.85097 7.40524 8.90638 7.48801 8.94419 7.57912C8.982 7.67024 9.00146 7.76792 9.00146 7.86657C9.00146 7.96523 8.982 8.06291 8.94419 8.15403C8.90638 8.24514 8.85097 8.32791 8.78112 8.39757L4.81062 12.3666L8.78112 16.3356C8.85085 16.4053 8.90617 16.4881 8.94391 16.5792C8.98164 16.6703 9.00107 16.768 9.00107 16.8666C9.00107 16.9652 8.98164 17.0628 8.94391 17.1539C8.90617 17.2451 8.85085 17.3278 8.78112 17.3976C8.71139 17.4673 8.6286 17.5226 8.5375 17.5604C8.44639 17.5981 8.34874 17.6175 8.25012 17.6175C8.1515 17.6175 8.05385 17.5981 7.96274 17.5604C7.87164 17.5226 7.78885 17.4673 7.71912 17.3976L3.21912 12.8976C3.14928 12.8279 3.09386 12.7451 3.05605 12.654C3.01824 12.5629 2.99878 12.4652 2.99878 12.3666C2.99878 12.2679 3.01824 12.1702 3.05605 12.0791C3.09386 11.988 3.14928 11.9052 3.21912 11.8356L7.71912 7.33557C7.78879 7.26573 7.87155 7.21032 7.96267 7.17251C8.05379 7.1347 8.15147 7.11523 8.25012 7.11523C8.34877 7.11523 8.44645 7.1347 8.53757 7.17251C8.62869 7.21032 8.71145 7.26573 8.78112 7.33557Z" fill="#009ADA"/>
<path fill-rule="evenodd" clip-rule="evenodd" d="M3.75 12.3672C3.75 12.1683 3.82902 11.9775 3.96967 11.8369C4.11032 11.6962 4.30109 11.6172 4.5 11.6172H20.25C20.4489 11.6172 20.6397 11.6962 20.7803 11.8369C20.921 11.9775 21 12.1683 21 12.3672C21 12.5661 20.921 12.7569 20.7803 12.8975C20.6397 13.0382 20.4489 13.1172 20.25 13.1172H4.5C4.30109 13.1172 4.11032 13.0382 3.96967 12.8975C3.82902 12.7569 3.75 12.5661 3.75 12.3672Z" fill="#009ADA"/>
</svg>
