<svg width="20" height="24" viewBox="0 0 20 24" fill="none" xmlns="http://www.w3.org/2000/svg">
<path d="M15.5598 15.7267C15.2698 15.8087 14.8443 15.8179 14.3878 15.7545C13.8981 15.6864 13.3985 15.5429 12.9076 15.3315C13.7831 15.2095 14.4624 15.247 15.0433 15.4444C15.1811 15.4911 15.4071 15.6161 15.5598 15.7267ZM10.6747 14.957C10.639 14.9663 10.6041 14.9751 10.5691 14.9843C10.3335 15.0458 10.1042 15.1057 9.88342 15.1591L9.58554 15.2316C8.98631 15.3769 8.37369 15.5253 7.76876 15.702C7.99874 15.1705 8.21236 14.6333 8.42152 14.108C8.57641 13.7192 8.73452 13.3218 8.89808 12.9297C8.9811 13.0611 9.06759 13.1924 9.1578 13.3242C9.56819 13.9234 10.0842 14.4775 10.6747 14.957ZM9.15061 8.96424C9.18952 9.61997 9.04182 10.2508 8.82522 10.8559C8.55857 10.1076 8.43416 9.2813 8.76773 8.61417C8.85323 8.44317 8.92336 8.35173 8.96871 8.304C9.03885 8.40802 9.13128 8.64029 9.15061 8.96424ZM6.02261 17.271C5.87268 17.5279 5.71977 17.7685 5.5629 17.9956C5.18447 18.542 4.56566 19.1272 4.24771 19.1272C4.21648 19.1272 4.17857 19.1225 4.1233 19.0664C4.08762 19.0306 4.08192 19.0049 4.08365 18.97C4.09431 18.7691 4.37212 18.4112 4.77458 18.0794C5.13987 17.7782 5.55274 17.5108 6.02261 17.271ZM16.5724 15.755C16.5238 15.0857 15.3481 14.6563 15.3365 14.6523C14.882 14.4979 14.3883 14.4229 13.8273 14.4229C13.2265 14.4229 12.579 14.5062 11.7473 14.6924C11.0073 14.1897 10.3679 13.5603 9.89036 12.8635C9.67947 12.5557 9.48988 12.2484 9.32459 11.9482C9.72804 11.0236 10.0913 10.0294 10.0254 8.91603C9.97214 8.02328 9.55209 7.42359 8.98086 7.42359C8.58905 7.42359 8.25152 7.7017 7.97718 8.25103C7.48773 9.23 7.61635 10.4826 8.35932 11.9771C8.09167 12.5794 7.84311 13.2038 7.60247 13.8085C7.3031 14.5602 6.99457 15.3356 6.64687 16.0733C5.67169 16.443 4.87073 16.8914 4.2031 17.442C3.7657 17.802 3.23858 18.3523 3.20834 18.9268C3.19372 19.1973 3.29037 19.4455 3.48714 19.6443C3.69606 19.8554 3.95875 19.9666 4.24746 19.9668C5.20108 19.9668 6.11876 18.7111 6.29273 18.4594C6.64315 17.9533 6.97102 17.3888 7.29245 16.7375C8.10183 16.4573 8.9645 16.2481 9.8004 16.0457L10.0998 15.9728C10.3248 15.9179 10.5587 15.8574 10.7986 15.7944C11.0526 15.7286 11.3139 15.6605 11.5793 15.5956C12.4377 16.1189 13.3609 16.4601 14.2612 16.5853C15.0195 16.691 15.6931 16.6297 16.1489 16.4019C16.5592 16.1972 16.582 15.8814 16.5724 15.755ZM18.4191 21.51C18.4191 22.7358 17.2918 22.8113 17.0643 22.8139H2.52039C1.24609 22.8139 1.16927 21.7262 1.16679 21.51V2.99308C1.16679 1.76617 2.29611 1.69183 2.52039 1.68922H12.3453L12.3505 1.6942V5.36853C12.3505 6.10596 12.8157 7.50197 14.5774 7.50197H18.3864L18.4191 7.53332V21.51ZM17.5161 6.66431H14.5777C13.3036 6.66431 13.2265 5.58251 13.2248 5.36853V2.53495L17.5161 6.66431ZM19.293 21.51V7.18752L13.2248 1.34793V1.32086H13.1958L12.7086 0.851562H2.52039C1.74991 0.851562 0.292969 1.29925 0.292969 2.99308V21.5103C0.292969 22.2508 0.758626 23.6516 2.52039 23.6516H17.0658C17.836 23.6513 19.293 23.2039 19.293 21.51Z" fill="#EE5B5B"/>
</svg>
