<svg width="20" height="20" viewBox="0 0 20 20" fill="none" xmlns="http://www.w3.org/2000/svg">
<path d="M18.1107 0.851562H1.47519C0.820747 0.851562 0.292969 1.37934 0.292969 2.03378V18.6693C0.292969 19.3238 0.820747 19.8516 1.47519 19.8516H18.1107C18.7652 19.8516 19.293 19.3238 19.293 18.6693V2.03378C19.293 1.37934 18.7652 0.851562 18.1107 0.851562ZM18.1107 18.0782C18.1107 18.416 17.8363 18.6693 17.5196 18.6693H2.0663C1.89741 18.6693 1.74964 18.606 1.64408 18.5005C1.53852 18.3949 1.47519 18.2471 1.47519 18.0782C1.47519 18.2471 1.53852 18.3949 1.64408 18.5005L5.80297 14.3416C6.03519 14.1093 6.41519 14.1093 6.64741 14.3416C6.64741 14.3416 7.13297 14.8271 7.7663 15.4605C8.37852 16.0727 8.82186 16.0938 9.45519 15.4605C10.0885 14.8271 12.9385 11.9771 12.9385 11.9771C13.1707 11.7449 13.5507 11.7449 13.783 11.9771L18.1107 16.3049V18.0782ZM18.1107 14.616L14.2052 10.7105C13.7407 10.246 12.9807 10.246 12.5163 10.7105L8.61075 14.616L7.06964 13.0749C6.60519 12.6105 5.84519 12.6105 5.38075 13.0749L1.47519 16.9805V2.6249C1.47519 2.28712 1.74964 2.03378 2.0663 2.03378H17.4985C17.8363 2.03378 18.0896 2.30823 18.0896 2.6249V14.616H18.1107Z" fill="#2282DA"/>
<path d="M6.20409 4.43945C4.91631 4.43945 3.88187 5.51612 3.88187 6.86723C3.88187 8.21834 4.91631 9.29501 6.20409 9.29501C7.49187 9.29501 8.52631 8.21834 8.52631 6.86723C8.52631 5.51612 7.49187 4.43945 6.20409 4.43945ZM6.20409 8.09167C5.57076 8.09167 5.04298 7.54279 5.04298 6.86723C5.04298 6.19168 5.57076 5.64279 6.20409 5.64279C6.83742 5.64279 7.3652 6.19168 7.3652 6.86723C7.3652 7.54279 6.83742 8.09167 6.20409 8.09167Z" fill="#2282DA"/>
</svg>
