<svg width="12" height="12" viewBox="0 0 12 12" fill="none" xmlns="http://www.w3.org/2000/svg">
<circle cx="6" cy="6" r="6" fill="#FFBE4A"/>
<path fill-rule="evenodd" clip-rule="evenodd" d="M6.05306 1.71436C6.57579 1.71436 6.98488 2.12345 6.96215 2.64617L6.64397 8.28254C6.64397 8.44163 6.5076 8.57799 6.34851 8.57799H5.75761C5.59851 8.57799 5.46215 8.44163 5.46215 8.28254L5.14397 2.64617C5.12124 2.12345 5.53033 1.71436 6.05306 1.71436Z" fill="white"/>
<path fill-rule="evenodd" clip-rule="evenodd" d="M6.05287 9.41895C6.4165 9.41895 6.68923 9.7144 6.68923 10.0553C6.68923 10.4189 6.4165 10.7144 6.05287 10.7144C5.68923 10.7144 5.4165 10.4189 5.4165 10.0553C5.4165 9.7144 5.68923 9.41895 6.05287 9.41895Z" fill="white"/>
</svg>
