<svg width="16" height="16" viewBox="0 0 16 16" fill="none" xmlns="http://www.w3.org/2000/svg">
<circle cx="8" cy="8" r="8" fill="#E70000"/>
<path fill-rule="evenodd" clip-rule="evenodd" d="M8.07026 2.28516C8.76723 2.28516 9.31268 2.83061 9.28238 3.52758L8.85814 11.0427C8.85814 11.2549 8.67632 11.4367 8.4642 11.4367H7.67632C7.4642 11.4367 7.28238 11.2549 7.28238 11.0427L6.85814 3.52758C6.82783 2.83061 7.37329 2.28516 8.07026 2.28516Z" fill="white"/>
<path fill-rule="evenodd" clip-rule="evenodd" d="M8.06919 12.5586C8.55404 12.5586 8.91767 12.9525 8.91767 13.4071C8.91767 13.8919 8.55404 14.2859 8.06919 14.2859C7.58434 14.2859 7.2207 13.8919 7.2207 13.4071C7.2207 12.9525 7.58434 12.5586 8.06919 12.5586Z" fill="white"/>
</svg>
